<mxfile host="app.diagrams.net" modified="2022-03-30T02:52:47.364Z" agent="5.0 (Macintosh; Intel Mac OS X 10_15_7) AppleWebKit/537.36 (KHTML, like Gecko) Chrome/99.0.4844.84 Safari/537.36" etag="HnycbGacvoQe2RaOOTn2" version="17.1.2" type="github">
  <diagram id="xYeqhLXHQMFrKxigypeR" name="Page-1">
    <mxGraphModel dx="2066" dy="1161" grid="1" gridSize="10" guides="1" tooltips="1" connect="1" arrows="1" fold="1" page="1" pageScale="1" pageWidth="827" pageHeight="1169" math="0" shadow="0">
      <root>
        <mxCell id="0" />
        <mxCell id="1" parent="0" />
        <mxCell id="ZSlK2BQsp31KyyE3Z5iS-11" style="edgeStyle=orthogonalEdgeStyle;rounded=0;orthogonalLoop=1;jettySize=auto;html=1;exitX=0.5;exitY=1;exitDx=0;exitDy=0;entryX=0.5;entryY=0;entryDx=0;entryDy=0;" edge="1" parent="1" source="ZSlK2BQsp31KyyE3Z5iS-1" target="ZSlK2BQsp31KyyE3Z5iS-3">
          <mxGeometry relative="1" as="geometry" />
        </mxCell>
        <mxCell id="ZSlK2BQsp31KyyE3Z5iS-12" style="edgeStyle=orthogonalEdgeStyle;rounded=0;orthogonalLoop=1;jettySize=auto;html=1;exitX=0.5;exitY=1;exitDx=0;exitDy=0;entryX=0.5;entryY=0;entryDx=0;entryDy=0;" edge="1" parent="1" source="ZSlK2BQsp31KyyE3Z5iS-1" target="ZSlK2BQsp31KyyE3Z5iS-2">
          <mxGeometry relative="1" as="geometry" />
        </mxCell>
        <mxCell id="ZSlK2BQsp31KyyE3Z5iS-13" style="edgeStyle=orthogonalEdgeStyle;rounded=0;orthogonalLoop=1;jettySize=auto;html=1;exitX=0.5;exitY=1;exitDx=0;exitDy=0;entryX=0.5;entryY=0;entryDx=0;entryDy=0;" edge="1" parent="1" source="ZSlK2BQsp31KyyE3Z5iS-1" target="ZSlK2BQsp31KyyE3Z5iS-4">
          <mxGeometry relative="1" as="geometry" />
        </mxCell>
        <mxCell id="ZSlK2BQsp31KyyE3Z5iS-1" value="ad-dsp-core" style="rounded=0;whiteSpace=wrap;html=1;" vertex="1" parent="1">
          <mxGeometry x="360" y="120" width="120" height="40" as="geometry" />
        </mxCell>
        <mxCell id="ZSlK2BQsp31KyyE3Z5iS-15" style="edgeStyle=orthogonalEdgeStyle;rounded=0;orthogonalLoop=1;jettySize=auto;html=1;exitX=0.5;exitY=1;exitDx=0;exitDy=0;" edge="1" parent="1" source="ZSlK2BQsp31KyyE3Z5iS-2" target="ZSlK2BQsp31KyyE3Z5iS-14">
          <mxGeometry relative="1" as="geometry" />
        </mxCell>
        <mxCell id="ZSlK2BQsp31KyyE3Z5iS-21" style="edgeStyle=orthogonalEdgeStyle;rounded=0;orthogonalLoop=1;jettySize=auto;html=1;exitX=0.5;exitY=1;exitDx=0;exitDy=0;entryX=0.5;entryY=0;entryDx=0;entryDy=0;" edge="1" parent="1" source="ZSlK2BQsp31KyyE3Z5iS-2" target="ZSlK2BQsp31KyyE3Z5iS-20">
          <mxGeometry relative="1" as="geometry" />
        </mxCell>
        <mxCell id="ZSlK2BQsp31KyyE3Z5iS-2" value="campaign-domain" style="rounded=0;whiteSpace=wrap;html=1;" vertex="1" parent="1">
          <mxGeometry x="160" y="200" width="120" height="40" as="geometry" />
        </mxCell>
        <mxCell id="ZSlK2BQsp31KyyE3Z5iS-8" style="edgeStyle=orthogonalEdgeStyle;rounded=0;orthogonalLoop=1;jettySize=auto;html=1;exitX=0.5;exitY=1;exitDx=0;exitDy=0;entryX=0.5;entryY=0;entryDx=0;entryDy=0;" edge="1" parent="1" source="ZSlK2BQsp31KyyE3Z5iS-3" target="ZSlK2BQsp31KyyE3Z5iS-5">
          <mxGeometry relative="1" as="geometry" />
        </mxCell>
        <mxCell id="ZSlK2BQsp31KyyE3Z5iS-9" style="edgeStyle=orthogonalEdgeStyle;rounded=0;orthogonalLoop=1;jettySize=auto;html=1;exitX=0.5;exitY=1;exitDx=0;exitDy=0;entryX=0.5;entryY=0;entryDx=0;entryDy=0;" edge="1" parent="1" source="ZSlK2BQsp31KyyE3Z5iS-3" target="ZSlK2BQsp31KyyE3Z5iS-6">
          <mxGeometry relative="1" as="geometry" />
        </mxCell>
        <mxCell id="ZSlK2BQsp31KyyE3Z5iS-10" style="edgeStyle=orthogonalEdgeStyle;rounded=0;orthogonalLoop=1;jettySize=auto;html=1;exitX=0.5;exitY=1;exitDx=0;exitDy=0;entryX=0.5;entryY=0;entryDx=0;entryDy=0;" edge="1" parent="1" source="ZSlK2BQsp31KyyE3Z5iS-3" target="ZSlK2BQsp31KyyE3Z5iS-7">
          <mxGeometry relative="1" as="geometry" />
        </mxCell>
        <mxCell id="ZSlK2BQsp31KyyE3Z5iS-3" value="unit-domain" style="rounded=0;whiteSpace=wrap;html=1;" vertex="1" parent="1">
          <mxGeometry x="360" y="200" width="120" height="40" as="geometry" />
        </mxCell>
        <mxCell id="ZSlK2BQsp31KyyE3Z5iS-17" style="edgeStyle=orthogonalEdgeStyle;rounded=0;orthogonalLoop=1;jettySize=auto;html=1;exitX=0.5;exitY=1;exitDx=0;exitDy=0;entryX=0.5;entryY=0;entryDx=0;entryDy=0;" edge="1" parent="1" source="ZSlK2BQsp31KyyE3Z5iS-4" target="ZSlK2BQsp31KyyE3Z5iS-16">
          <mxGeometry relative="1" as="geometry" />
        </mxCell>
        <mxCell id="ZSlK2BQsp31KyyE3Z5iS-19" style="edgeStyle=orthogonalEdgeStyle;rounded=0;orthogonalLoop=1;jettySize=auto;html=1;exitX=0.5;exitY=1;exitDx=0;exitDy=0;entryX=0.5;entryY=0;entryDx=0;entryDy=0;" edge="1" parent="1" source="ZSlK2BQsp31KyyE3Z5iS-4" target="ZSlK2BQsp31KyyE3Z5iS-18">
          <mxGeometry relative="1" as="geometry" />
        </mxCell>
        <mxCell id="ZSlK2BQsp31KyyE3Z5iS-4" value="creative-domain" style="rounded=0;whiteSpace=wrap;html=1;" vertex="1" parent="1">
          <mxGeometry x="560" y="200" width="120" height="40" as="geometry" />
        </mxCell>
        <mxCell id="ZSlK2BQsp31KyyE3Z5iS-5" value="target-ability" style="rounded=0;whiteSpace=wrap;html=1;" vertex="1" parent="1">
          <mxGeometry x="280" y="280" width="80" height="40" as="geometry" />
        </mxCell>
        <mxCell id="ZSlK2BQsp31KyyE3Z5iS-6" value="bid-ability" style="rounded=0;whiteSpace=wrap;html=1;" vertex="1" parent="1">
          <mxGeometry x="380" y="280" width="80" height="40" as="geometry" />
        </mxCell>
        <mxCell id="ZSlK2BQsp31KyyE3Z5iS-7" value="budget-ability" style="rounded=0;whiteSpace=wrap;html=1;" vertex="1" parent="1">
          <mxGeometry x="480" y="280" width="80" height="40" as="geometry" />
        </mxCell>
        <mxCell id="ZSlK2BQsp31KyyE3Z5iS-14" value="budget-ability" style="rounded=0;whiteSpace=wrap;html=1;" vertex="1" parent="1">
          <mxGeometry x="180" y="280" width="80" height="40" as="geometry" />
        </mxCell>
        <mxCell id="ZSlK2BQsp31KyyE3Z5iS-16" value="photo-ability" style="rounded=0;whiteSpace=wrap;html=1;" vertex="1" parent="1">
          <mxGeometry x="580" y="280" width="80" height="40" as="geometry" />
        </mxCell>
        <mxCell id="ZSlK2BQsp31KyyE3Z5iS-18" value="cover-ability" style="rounded=0;whiteSpace=wrap;html=1;" vertex="1" parent="1">
          <mxGeometry x="680" y="280" width="80" height="40" as="geometry" />
        </mxCell>
        <mxCell id="ZSlK2BQsp31KyyE3Z5iS-20" value="bid-ability" style="rounded=0;whiteSpace=wrap;html=1;" vertex="1" parent="1">
          <mxGeometry x="80" y="280" width="80" height="40" as="geometry" />
        </mxCell>
      </root>
    </mxGraphModel>
  </diagram>
</mxfile>
